0
SECTION
2
HEADER
9
$INSUNITS
70
2
0
ENDSEC
0
SECTION
2
TABLES
0
TABLE
2
LTYPE
0
LTYPE
72
65
70
0
2
CONTINUOUS
3
______
73
0
40
0
0
LTYPE
72
65
70
0
2
DASHED
3
_ _ _ 
73
2
40
7.5
49
5
49
-2.5
0
LTYPE
72
65
70
0
2
DOTTED
3
. . . 
73
2
40
1.5
49
0.5
49
-1
0
ENDTAB
0
TABLE
2
LAYER
0
ENDTAB
0
ENDSEC
0
SECTION
2
ENTITIES
0
LINE
8
PLOT_BOUNDARY
6
CONTINUOUS
10
0
20
0
11
27.5
21
0
0
LINE
8
PLOT_BOUNDARY
6
CONTINUOUS
10
27.5
20
0
11
57.25
21
41
0
LINE
8
PLOT_BOUNDARY
6
CONTINUOUS
10
57.25
20
41
11
-0.75
21
41
0
LINE
8
PLOT_BOUNDARY
6
CONTINUOUS
10
-0.75
20
41
11
0
21
0
0
LINE
8
BUILDABLE_AREA
6
CONTINUOUS
10
2
20
3
11
24
21
3
0
LINE
8
BUILDABLE_AREA
6
CONTINUOUS
10
24
20
3
11
24
21
39
0
LINE
8
BUILDABLE_AREA
6
CONTINUOUS
10
24
20
39
11
2
21
39
0
LINE
8
BUILDABLE_AREA
6
CONTINUOUS
10
2
20
39
11
2
21
3
0
LINE
8
WALLS
6
CONTINUOUS
10
2
20
3
11
20
21
3
0
LINE
8
WALLS
6
CONTINUOUS
10
20
20
3
11
20
21
7
0
LINE
8
WALLS
6
CONTINUOUS
10
20
20
7
11
2
21
7
0
LINE
8
WALLS
6
CONTINUOUS
10
2
20
7
11
2
21
3
0
LINE
8
WALLS
6
CONTINUOUS
10
2.75
20
3.75
11
19.25
21
3.75
0
LINE
8
WALLS
6
CONTINUOUS
10
19.25
20
3.75
11
19.25
21
6.25
0
LINE
8
WALLS
6
CONTINUOUS
10
19.25
20
6.25
11
2.75
21
6.25
0
LINE
8
WALLS
6
CONTINUOUS
10
2.75
20
6.25
11
2.75
21
3.75
0
LINE
8
DOORS
6
CONTINUOUS
10
2.75
20
10
11
5.2
21
12.45
0
ARC
8
DOORS
6
CONTINUOUS
10
2.75
20
10
40
3.15
50
0
51
90
0
LINE
8
DOORS
6
CONTINUOUS
10
2
20
10
11
2.75
21
10
0
LINE
8
DOORS
6
CONTINUOUS
10
2.75
20
10
11
2.75
21
13.5
0
LINE
8
DOORS
6
CONTINUOUS
10
2.75
20
13.5
11
2
21
13.5
0
LINE
8
DOORS
6
CONTINUOUS
10
2
20
13.5
11
2
21
10
0
LINE
8
WALLS
6
CONTINUOUS
10
2
20
7
11
14
21
7
0
LINE
8
WALLS
6
CONTINUOUS
10
14
20
7
11
14
21
19
0
LINE
8
WALLS
6
CONTINUOUS
10
14
20
19
11
2
21
19
0
LINE
8
WALLS
6
CONTINUOUS
10
2
20
19
11
2
21
7
0
LINE
8
WALLS
6
CONTINUOUS
10
2.75
20
7.75
11
13.25
21
7.75
0
LINE
8
WALLS
6
CONTINUOUS
10
13.25
20
7.75
11
13.25
21
18.25
0
LINE
8
WALLS
6
CONTINUOUS
10
13.25
20
18.25
11
2.75
21
18.25
0
LINE
8
WALLS
6
CONTINUOUS
10
2.75
20
18.25
11
2.75
21
7.75
0
LINE
8
DOORS
6
CONTINUOUS
10
6
20
7.75
11
8.1
21
9.85
0
ARC
8
DOORS
6
CONTINUOUS
10
6
20
7.75
40
2.7
50
90
51
180
0
LINE
8
DOORS
6
CONTINUOUS
10
6
20
7
11
9
21
7
0
LINE
8
DOORS
6
CONTINUOUS
10
9
20
7
11
9
21
7.75
0
LINE
8
DOORS
6
CONTINUOUS
10
9
20
7.75
11
6
21
7.75
0
LINE
8
DOORS
6
CONTINUOUS
10
6
20
7.75
11
6
21
7
0
LINE
8
WINDOWS
6
CONTINUOUS
10
5
20
18.525
11
10
21
18.525
0
LINE
8
WINDOWS
6
CONTINUOUS
10
5
20
18.725
11
10
21
18.725
0
LINE
8
WINDOWS
6
CONTINUOUS
10
2.275
20
11
11
2.275
21
15
0
LINE
8
WINDOWS
6
CONTINUOUS
10
2.475
20
11
11
2.475
21
15
0
LINE
8
WALLS
6
CONTINUOUS
10
8
20
17
11
18
21
17
0
LINE
8
WALLS
6
CONTINUOUS
10
18
20
17
11
18
21
27
0
LINE
8
WALLS
6
CONTINUOUS
10
18
20
27
11
8
21
27
0
LINE
8
WALLS
6
CONTINUOUS
10
8
20
27
11
8
21
17
0
LINE
8
WALLS
6
CONTINUOUS
10
8.75
20
17.75
11
17.25
21
17.75
0
LINE
8
WALLS
6
CONTINUOUS
10
17.25
20
17.75
11
17.25
21
26.25
0
LINE
8
WALLS
6
CONTINUOUS
10
17.25
20
26.25
11
8.75
21
26.25
0
LINE
8
WALLS
6
CONTINUOUS
10
8.75
20
26.25
11
8.75
21
17.75
0
LINE
8
DOORS
6
CONTINUOUS
10
8.75
20
20
11
10.85
21
22.1
0
ARC
8
DOORS
6
CONTINUOUS
10
8.75
20
20
40
2.7
50
0
51
90
0
LINE
8
DOORS
6
CONTINUOUS
10
8
20
20
11
8.75
21
20
0
LINE
8
DOORS
6
CONTINUOUS
10
8.75
20
20
11
8.75
21
23
0
LINE
8
DOORS
6
CONTINUOUS
10
8.75
20
23
11
8
21
23
0
LINE
8
DOORS
6
CONTINUOUS
10
8
20
23
11
8
21
20
0
LINE
8
WINDOWS
6
CONTINUOUS
10
11
20
26.525
11
15
21
26.525
0
LINE
8
WINDOWS
6
CONTINUOUS
10
11
20
26.725
11
15
21
26.725
0
LINE
8
WALLS
6
CONTINUOUS
10
9
20
14
11
17
21
14
0
LINE
8
WALLS
6
CONTINUOUS
10
17
20
14
11
17
21
22
0
LINE
8
WALLS
6
CONTINUOUS
10
17
20
22
11
9
21
22
0
LINE
8
WALLS
6
CONTINUOUS
10
9
20
22
11
9
21
14
0
LINE
8
WALLS
6
CONTINUOUS
10
9.75
20
14.75
11
16.25
21
14.75
0
LINE
8
WALLS
6
CONTINUOUS
10
16.25
20
14.75
11
16.25
21
21.25
0
LINE
8
WALLS
6
CONTINUOUS
10
16.25
20
21.25
11
9.75
21
21.25
0
LINE
8
WALLS
6
CONTINUOUS
10
9.75
20
21.25
11
9.75
21
14.75
0
LINE
8
WALLS
6
CONTINUOUS
10
14
20
7
11
22
21
7
0
LINE
8
WALLS
6
CONTINUOUS
10
22
20
7
11
22
21
17
0
LINE
8
WALLS
6
CONTINUOUS
10
22
20
17
11
14
21
17
0
LINE
8
WALLS
6
CONTINUOUS
10
14
20
17
11
14
21
7
0
LINE
8
WALLS
6
CONTINUOUS
10
14.75
20
7.75
11
21.25
21
7.75
0
LINE
8
WALLS
6
CONTINUOUS
10
21.25
20
7.75
11
21.25
21
16.25
0
LINE
8
WALLS
6
CONTINUOUS
10
21.25
20
16.25
11
14.75
21
16.25
0
LINE
8
WALLS
6
CONTINUOUS
10
14.75
20
16.25
11
14.75
21
7.75
0
LINE
8
DOORS
6
CONTINUOUS
10
14.75
20
10
11
16.675
21
11.925
0
ARC
8
DOORS
6
CONTINUOUS
10
14.75
20
10
40
2.475
50
0
51
90
0
LINE
8
DOORS
6
CONTINUOUS
10
14
20
10
11
14.75
21
10
0
LINE
8
DOORS
6
CONTINUOUS
10
14.75
20
10
11
14.75
21
12.75
0
LINE
8
DOORS
6
CONTINUOUS
10
14.75
20
12.75
11
14
21
12.75
0
LINE
8
DOORS
6
CONTINUOUS
10
14
20
12.75
11
14
21
10
0
LINE
8
WINDOWS
6
CONTINUOUS
10
21.525
20
10
11
21.525
21
14
0
LINE
8
WINDOWS
6
CONTINUOUS
10
21.725
20
10
11
21.725
21
14
0
LINE
8
WINDOWS
6
CONTINUOUS
10
16
20
7.275
11
19
21
7.275
0
LINE
8
WINDOWS
6
CONTINUOUS
10
16
20
7.475
11
19
21
7.475
0
LINE
8
WALLS
6
CONTINUOUS
10
2
20
27
11
14
21
27
0
LINE
8
WALLS
6
CONTINUOUS
10
14
20
27
11
14
21
37
0
LINE
8
WALLS
6
CONTINUOUS
10
14
20
37
11
2
21
37
0
LINE
8
WALLS
6
CONTINUOUS
10
2
20
37
11
2
21
27
0
LINE
8
WALLS
6
CONTINUOUS
10
2.75
20
27.75
11
13.25
21
27.75
0
LINE
8
WALLS
6
CONTINUOUS
10
13.25
20
27.75
11
13.25
21
36.25
0
LINE
8
WALLS
6
CONTINUOUS
10
13.25
20
36.25
11
2.75
21
36.25
0
LINE
8
WALLS
6
CONTINUOUS
10
2.75
20
36.25
11
2.75
21
27.75
0
LINE
8
DOORS
6
CONTINUOUS
10
13.25
20
30
11
16.1
21
32.1
0
ARC
8
DOORS
6
CONTINUOUS
10
13.25
20
30
40
2.7
50
0
51
90
0
LINE
8
DOORS
6
CONTINUOUS
10
13.25
20
30
11
14
21
30
0
LINE
8
DOORS
6
CONTINUOUS
10
14
20
30
11
14
21
33
0
LINE
8
DOORS
6
CONTINUOUS
10
14
20
33
11
13.25
21
33
0
LINE
8
DOORS
6
CONTINUOUS
10
13.25
20
33
11
13.25
21
30
0
LINE
8
WINDOWS
6
CONTINUOUS
10
6
20
36.525
11
10
21
36.525
0
LINE
8
WINDOWS
6
CONTINUOUS
10
6
20
36.725
11
10
21
36.725
0
LINE
8
WINDOWS
6
CONTINUOUS
10
2.275
20
30
11
2.275
21
34
0
LINE
8
WINDOWS
6
CONTINUOUS
10
2.475
20
30
11
2.475
21
34
0
LINE
8
WALLS
6
CONTINUOUS
10
14
20
27
11
24
21
27
0
LINE
8
WALLS
6
CONTINUOUS
10
24
20
27
11
24
21
37
0
LINE
8
WALLS
6
CONTINUOUS
10
24
20
37
11
14
21
37
0
LINE
8
WALLS
6
CONTINUOUS
10
14
20
37
11
14
21
27
0
LINE
8
WALLS
6
CONTINUOUS
10
14.75
20
27.75
11
23.25
21
27.75
0
LINE
8
WALLS
6
CONTINUOUS
10
23.25
20
27.75
11
23.25
21
36.25
0
LINE
8
WALLS
6
CONTINUOUS
10
23.25
20
36.25
11
14.75
21
36.25
0
LINE
8
WALLS
6
CONTINUOUS
10
14.75
20
36.25
11
14.75
21
27.75
0
LINE
8
DOORS
6
CONTINUOUS
10
14.75
20
30
11
16.85
21
32.1
0
ARC
8
DOORS
6
CONTINUOUS
10
14.75
20
30
40
2.7
50
0
51
90
0
LINE
8
DOORS
6
CONTINUOUS
10
14
20
30
11
14.75
21
30
0
LINE
8
DOORS
6
CONTINUOUS
10
14.75
20
30
11
14.75
21
33
0
LINE
8
DOORS
6
CONTINUOUS
10
14.75
20
33
11
14
21
33
0
LINE
8
DOORS
6
CONTINUOUS
10
14
20
33
11
14
21
30
0
LINE
8
WINDOWS
6
CONTINUOUS
10
17
20
36.525
11
21
21
36.525
0
LINE
8
WINDOWS
6
CONTINUOUS
10
17
20
36.725
11
21
21
36.725
0
LINE
8
WINDOWS
6
CONTINUOUS
10
23.525
20
30
11
23.525
21
34
0
LINE
8
WINDOWS
6
CONTINUOUS
10
23.725
20
30
11
23.725
21
34
0
LINE
8
WALLS
6
CONTINUOUS
10
14
20
22
11
21
21
22
0
LINE
8
WALLS
6
CONTINUOUS
10
21
20
22
11
21
21
27
0
LINE
8
WALLS
6
CONTINUOUS
10
21
20
27
11
14
21
27
0
LINE
8
WALLS
6
CONTINUOUS
10
14
20
27
11
14
21
22
0
LINE
8
WALLS
6
CONTINUOUS
10
14.75
20
22.75
11
20.25
21
22.75
0
LINE
8
WALLS
6
CONTINUOUS
10
20.25
20
22.75
11
20.25
21
26.25
0
LINE
8
WALLS
6
CONTINUOUS
10
20.25
20
26.25
11
14.75
21
26.25
0
LINE
8
WALLS
6
CONTINUOUS
10
14.75
20
26.25
11
14.75
21
22.75
0
LINE
8
DOORS
6
CONTINUOUS
10
16
20
22.75
11
17.75
21
24.5
0
ARC
8
DOORS
6
CONTINUOUS
10
16
20
22.75
40
2.25
50
90
51
180
0
LINE
8
DOORS
6
CONTINUOUS
10
16
20
22
11
18.5
21
22
0
LINE
8
DOORS
6
CONTINUOUS
10
18.5
20
22
11
18.5
21
22.75
0
LINE
8
DOORS
6
CONTINUOUS
10
18.5
20
22.75
11
16
21
22.75
0
LINE
8
DOORS
6
CONTINUOUS
10
16
20
22.75
11
16
21
22
0
LINE
8
WINDOWS
6
CONTINUOUS
10
20.525
20
23
11
20.525
21
25
0
LINE
8
WINDOWS
6
CONTINUOUS
10
20.725
20
23
11
20.725
21
25
0
LINE
8
WALLS
6
CONTINUOUS
10
17
20
17
11
25
21
17
0
LINE
8
WALLS
6
CONTINUOUS
10
25
20
17
11
25
21
21
0
LINE
8
WALLS
6
CONTINUOUS
10
25
20
21
11
17
21
21
0
LINE
8
WALLS
6
CONTINUOUS
10
17
20
21
11
17
21
17
0
LINE
8
WALLS
6
CONTINUOUS
10
17.75
20
17.75
11
24.25
21
17.75
0
LINE
8
WALLS
6
CONTINUOUS
10
24.25
20
17.75
11
24.25
21
20.25
0
LINE
8
WALLS
6
CONTINUOUS
10
24.25
20
20.25
11
17.75
21
20.25
0
LINE
8
WALLS
6
CONTINUOUS
10
17.75
20
20.25
11
17.75
21
17.75
0
LINE
8
DIMENSIONS
6
CONTINUOUS
10
0
20
-2
11
27.5
21
-2
0
LINE
8
DIMENSIONS
6
CONTINUOUS
10
0
20
0
11
0
21
-2.3
0
LINE
8
DIMENSIONS
6
CONTINUOUS
10
27.5
20
0
11
27.5
21
-2.3
0
LINE
8
DIMENSIONS
6
CONTINUOUS
10
-0.75
20
43
11
28.25
21
43
0
LINE
8
DIMENSIONS
6
CONTINUOUS
10
-0.75
20
41
11
-0.75
21
42.7
0
LINE
8
DIMENSIONS
6
CONTINUOUS
10
28.25
20
41
11
28.25
21
42.7
0
LINE
8
DIMENSIONS
6
CONTINUOUS
10
-2
20
0
11
-2
21
41
0
LINE
8
DIMENSIONS
6
CONTINUOUS
10
0
20
0
11
-2.3
21
0
0
LINE
8
DIMENSIONS
6
CONTINUOUS
10
-0.75
20
41
11
-2.3
21
41
0
LINE
8
DIMENSIONS
6
CONTINUOUS
10
29.5
20
0
11
29.5
21
41
0
LINE
8
DIMENSIONS
6
CONTINUOUS
10
27.5
20
0
11
29.2
21
0
0
LINE
8
DIMENSIONS
6
CONTINUOUS
10
57.25
20
41
11
29.2
21
41
0
LINE
8
SYMBOLS
6
CONTINUOUS
10
32
20
40
11
32
21
43
0
LINE
8
SYMBOLS
6
CONTINUOUS
10
32
20
43
11
31.5
21
42.5
0
LINE
8
SYMBOLS
6
CONTINUOUS
10
32
20
43
11
32.5
21
42.5
0
LINE
8
PILLARS
6
CONTINUOUS
10
9
20
14
11
9.75
21
14
0
LINE
8
PILLARS
6
CONTINUOUS
10
9.75
20
14
11
9.75
21
14.75
0
LINE
8
PILLARS
6
CONTINUOUS
10
9.75
20
14.75
11
9
21
14.75
0
LINE
8
PILLARS
6
CONTINUOUS
10
9
20
14.75
11
9
21
14
0
LINE
8
PILLARS
6
CONTINUOUS
10
16.25
20
14
11
17
21
14
0
LINE
8
PILLARS
6
CONTINUOUS
10
17
20
14
11
17
21
14.75
0
LINE
8
PILLARS
6
CONTINUOUS
10
17
20
14.75
11
16.25
21
14.75
0
LINE
8
PILLARS
6
CONTINUOUS
10
16.25
20
14.75
11
16.25
21
14
0
LINE
8
PILLARS
6
CONTINUOUS
10
9
20
21.25
11
9.75
21
21.25
0
LINE
8
PILLARS
6
CONTINUOUS
10
9.75
20
21.25
11
9.75
21
22
0
LINE
8
PILLARS
6
CONTINUOUS
10
9.75
20
22
11
9
21
22
0
LINE
8
PILLARS
6
CONTINUOUS
10
9
20
22
11
9
21
21.25
0
LINE
8
PILLARS
6
CONTINUOUS
10
16.25
20
21.25
11
17
21
21.25
0
LINE
8
PILLARS
6
CONTINUOUS
10
17
20
21.25
11
17
21
22
0
LINE
8
PILLARS
6
CONTINUOUS
10
17
20
22
11
16.25
21
22
0
LINE
8
PILLARS
6
CONTINUOUS
10
16.25
20
22
11
16.25
21
21.25
0
CIRCLE
8
WATER_FEATURE
6
CONTINUOUS
10
13
20
18
40
2
0
LINE
8
LABELS
6
CONTINUOUS
10
10.9
20
5
11
11.1
21
5
0
LINE
8
LABELS
6
CONTINUOUS
10
7.9
20
13
11
8.1
21
13
0
LINE
8
LABELS
6
CONTINUOUS
10
12.9
20
22
11
13.1
21
22
0
LINE
8
LABELS
6
CONTINUOUS
10
12.9
20
18
11
13.1
21
18
0
LINE
8
LABELS
6
CONTINUOUS
10
17.9
20
12
11
18.1
21
12
0
LINE
8
LABELS
6
CONTINUOUS
10
7.9
20
32
11
8.1
21
32
0
LINE
8
LABELS
6
CONTINUOUS
10
18.9
20
32
11
19.1
21
32
0
LINE
8
LABELS
6
CONTINUOUS
10
17.4
20
24.5
11
17.6
21
24.5
0
LINE
8
LABELS
6
CONTINUOUS
10
20.9
20
19
11
21.1
21
19
0
LINE
8
TITLE_BLOCK
6
CONTINUOUS
10
0
20
-5
11
29
21
-5
0
LINE
8
TITLE_BLOCK
6
CONTINUOUS
10
29
20
-5
11
29
21
-1
0
LINE
8
TITLE_BLOCK
6
CONTINUOUS
10
29
20
-1
11
0
21
-1
0
LINE
8
TITLE_BLOCK
6
CONTINUOUS
10
0
20
-1
11
0
21
-5
0
LINE
8
TITLE_BLOCK
6
CONTINUOUS
10
9.5
20
-2
11
19.5
21
-2
0
TEXT
10
13.8
20
-2
11
13.8
21
-2
40
9
1
27'-6"
50
0
8
DIMENSIONS
72
4
73
0
0
TEXT
10
13.8
20
43
11
13.8
21
43
40
9
1
29'-0"
50
0
8
DIMENSIONS
72
4
73
0
0
TEXT
10
-2
20
20.55
11
-2
21
20.55
40
9
1
43'-0"
50
90
8
DIMENSIONS
72
4
73
0
0
TEXT
10
29.5
20
20.55
11
29.5
21
20.55
40
9
1
41'-0"
50
90
8
DIMENSIONS
72
4
73
0
0
TEXT
10
11
20
5
11
11
21
5
40
9
1
Verandah
18'×4'
50
0
8
LABELS
72
4
73
0
0
TEXT
10
8
20
13
11
8
21
13
40
9
1
Living Room
12'×12'
50
0
8
LABELS
72
4
73
0
0
TEXT
10
13
20
22
11
13
21
22
40
9
1
Dining
10'×10'
50
0
8
LABELS
72
4
73
0
0
TEXT
10
13
20
18
11
13
21
18
40
9
1
Mutram
8'×8'
50
0
8
LABELS
72
4
73
0
0
TEXT
10
18
20
12
11
18
21
12
40
9
1
Kitchen
8'×10'
50
0
8
LABELS
72
4
73
0
0
TEXT
10
8
20
32
11
8
21
32
40
9
1
Bedroom 1
12'×10'
50
0
8
LABELS
72
4
73
0
0
TEXT
10
19
20
32
11
19
21
32
40
9
1
Bedroom 2
10'×10'
50
0
8
LABELS
72
4
73
0
0
TEXT
10
17.5
20
24.5
11
17.5
21
24.5
40
9
1
Common Toilet
7'×5'
50
0
8
LABELS
72
4
73
0
0
TEXT
10
21
20
19
11
21
21
19
40
9
1
Staircase
8'×4'
50
0
8
LABELS
72
4
73
0
0
TEXT
10
14.5
20
-2
11
14.5
21
-2
40
9
1
ECO-FRIENDLY COURTYARD HOUSE | Survey No: 63 | Scale 1:50
50
0
8
TITLE_BLOCK
72
4
73
0
0
ENDSEC
0
EOF